<svg width="310" height="277" viewBox="0 0 310 277" fill="none" xmlns="http://www.w3.org/2000/svg">
<path d="M211.131 276.929C200.055 276.93 188.349 274.89 176.176 270.415C147.351 259.817 124.261 258.903 103.876 258.903C101.752 258.903 99.661 258.914 97.5923 258.924C95.5243 258.933 93.481 258.943 91.4616 258.943C73.2929 258.943 56.9413 258.141 39.9055 249.324C38.3438 248.516 36.8198 247.676 35.3379 246.809C38.0255 235.771 40.63 225.332 42.4697 218.516C43.5761 215.323 44.834 212.156 46.2977 209.034C47.2023 207.607 48.3058 206.676 49.5342 205.886C50.7606 205.098 52.1118 204.461 53.4721 203.64C57.5298 201.914 61.6751 200.874 65.1154 199.168L65.1668 199.136C65.6759 198.763 66.1793 198.391 66.6785 198.019C67.679 197.456 68.5043 196.859 69.0837 196.198C76.0917 190.813 82.2407 185.337 88.3058 178.855L88.3368 178.818C91.5159 174.298 93.976 169.907 97.9084 167.534L97.9246 167.524C102.539 164.364 108.394 162.829 113.813 160.707C115.26 160.14 116.677 159.53 118.03 158.833C121.789 159.491 125.954 160.221 130.13 160.93C140.116 162.627 150.145 164.207 154.878 164.422C159.658 164.638 165.195 164.752 170.873 164.752C176.35 164.752 181.959 164.646 187.145 164.422C191.436 164.236 198.044 163.955 204.071 162.935C204.789 162.813 205.499 162.681 206.196 162.537C210.229 164.163 214.151 165.958 217.83 168.142C218.157 168.358 218.476 168.578 218.784 168.806C220.102 169.914 221.045 171.375 221.922 172.999C222.913 174.83 223.813 176.858 225.097 178.761L225.121 178.792C230.982 185.679 238.429 189.818 244.238 195.898L244.243 195.902C246.582 198.26 249.514 199.749 252.613 200.978C255.713 202.205 258.987 203.177 262.034 204.475C265.021 205.748 267.545 207.736 269.068 210.39C269.252 210.742 269.414 211.105 269.551 211.482C269.859 212.326 270.286 213.727 270.808 215.575C273.298 225.704 275.794 235.84 278.385 246.078C261.514 264.717 238.226 276.927 211.131 276.929ZM0.520339 198.541C0.174622 195.908 -0.00084189 193.219 3.03695e-06 190.473C0.00380521 176.302 4.70625 160.681 14.9669 144.161C43.5178 98.1906 35.3832 10.8569 143.071 1.58029C149.253 1.04712 155.004 0.791441 160.358 0.791441C230.626 0.791441 233.338 44.8622 269.902 86.1206C297.301 117.037 309.706 136.187 309.705 162.246C309.705 170.545 308.448 179.54 306.015 189.844C306.012 189.838 306.008 189.833 306.004 189.828C304.161 186.188 302.441 182.559 300.835 178.928C299.281 174.761 297.86 170.434 295.554 165.698C295.408 165.398 295.259 165.078 295.107 164.738C289.791 150.223 285.958 135.412 282.776 119.513L282.698 119.354C282.412 119.019 282.111 118.485 281.817 117.856C281.522 117.226 281.229 116.5 280.935 115.77L280.836 115.632C278.465 113.633 275.692 112.519 273.06 111.337C270.425 110.155 267.937 108.91 266.061 106.702C258.973 98.3638 252.572 90.0641 244.696 82.3405L244.556 82.256C235.534 79.3922 225.625 79.3049 216.519 78.5661L216.359 78.5907C212.711 80.0613 208.814 80.96 204.974 81.839C201.721 79.4183 198.37 77.4096 194.8 75.7664C187.428 72.3716 179.136 70.5347 168.872 69.8001C166.583 69.636 164.235 69.5557 161.844 69.5557C144.51 69.5578 124.98 73.7957 109.977 81.4362C106.796 80.5537 103.61 80.1656 100.313 79.8106C99.8673 79.6289 99.4173 79.4359 98.9639 79.2309C98.3943 78.9739 97.5958 78.8668 96.5361 78.8668C95.656 78.8668 94.5956 78.9408 93.336 79.0647C92.1165 78.9788 90.8843 78.9386 89.6479 78.9386C85.2007 78.9386 80.7015 79.4613 76.5381 80.2677L76.5191 80.2719C74.442 80.7931 72.3452 81.3171 70.3476 82.1982C68.3508 83.0786 66.4532 84.3211 64.8021 86.2629L64.7908 86.2777C59.0418 93.8076 53.9471 100.566 47.4584 107.431C43.6213 111.2 38.8177 112.295 34.0177 114.82L33.914 114.903C33.64 115.225 33.3556 115.404 33.0872 115.61C32.9541 115.714 32.8204 115.827 32.7118 115.986C32.6026 116.144 32.5344 116.351 32.5365 116.572L32.5382 116.617C28.6951 134.329 24.007 151.315 17.3535 168.258C16.6246 169.92 15.987 171.534 15.3924 173.112C13.6849 177.221 11.856 181.331 9.88854 185.452C7.23195 190.584 3.89399 194.165 0.520339 198.541ZM3.86048 195.467C5.22025 193.774 6.55284 192.093 7.80896 190.264C7.57379 190.623 7.33038 190.984 7.07789 191.346C5.84901 193.106 4.78349 194.423 3.86048 195.467ZM71.7446 193.214C74.2645 190.774 77.9379 187.798 81.3985 184.811C78.3019 187.744 75.1165 190.507 71.7446 193.214ZM239.162 190.33C234.575 186.555 229.71 183.104 225.669 178.35C225.422 177.984 225.189 177.61 224.966 177.232C228.024 181.169 234.34 186.143 239.162 190.33ZM91.3574 173.189C92.0813 171.855 93.0107 170.75 94.0999 169.781C93.1247 170.818 92.2298 171.971 91.3574 173.189ZM110.836 161.068C112.632 160.352 114.613 159.523 116.552 158.574C116.654 158.592 116.757 158.61 116.861 158.628C114.95 159.547 112.912 160.321 110.836 161.068ZM237.78 153.937C238.604 153.694 239.382 153.363 240.116 152.958C239.273 153.571 238.474 153.932 237.78 153.937ZM76.8824 153.714C73.7928 152.926 71.5995 150.905 69.8421 148.376C68.074 145.828 66.7721 142.778 65.4921 140.05C65.3583 139.692 65.259 139.342 65.1907 138.998C65.3111 138.35 65.6456 136.584 66.0814 134.555C66.3842 134.083 66.7482 133.633 67.1643 133.206C68.462 131.877 70.2631 130.796 72.217 130.064L72.2762 130.035C73.6217 129.221 75.0172 128.378 76.3459 126.814L76.3536 126.804C83.67 117.573 89.5437 108.005 95.925 98.7033C95.4539 100.002 94.9786 101.321 94.4632 102.643V102.642C94.3865 102.839 94.3126 103.034 94.2407 103.229C93.8655 104.253 93.5373 105.356 93.5359 106.49C93.5359 106.785 93.5585 107.08 93.6085 107.377V107.376C93.7803 108.401 94.2351 109.268 94.8737 109.977C95.5511 110.731 96.4291 111.311 97.4071 111.757C96.5206 112.3 95.8186 113.028 96.0257 113.927C96.5192 116.077 93.8887 116.254 93.8887 116.254C93.8887 116.254 93.8887 116.255 93.8887 116.256C93.9 116.294 94.1492 117.028 96.8861 117.237C96.9431 117.241 97.0008 117.245 97.06 117.249C97.1917 117.258 97.3198 117.262 97.4444 117.262C97.8099 117.262 98.1457 117.228 98.4555 117.172L96.6206 119.781C96.5558 119.872 96.5389 119.989 96.5742 120.095L96.7819 120.717V120.718L98.4337 125.675C98.4703 125.784 98.559 125.869 98.6696 125.901C98.6773 125.903 99.2645 126.073 100.315 126.289C99.9285 126.937 99.5511 127.645 99.2554 128.359C98.9174 129.178 98.6822 130.003 98.6808 130.771C98.6808 131.239 98.771 131.691 98.9956 132.089C98.7259 132.81 98.5189 133.553 98.5147 134.186C98.5154 134.505 98.5682 134.812 98.7386 135.075C98.8505 135.24 98.9618 135.598 99.0244 136.052C99.0906 136.507 99.1188 137.061 99.1188 137.644C99.1188 138.516 99.0561 139.458 98.9709 140.267C98.9449 140.518 98.916 140.757 98.8864 140.977C98.5787 141.071 98.333 141.175 98.138 141.303V141.303C97.474 141.756 97.0635 142.549 96.7959 143.49C96.5305 144.433 96.4143 145.543 96.4143 146.67C96.4143 147.325 96.4537 147.986 96.5284 148.623C89.9654 150.067 83.4897 151.953 76.8824 153.714ZM235.886 153.613C230.08 151.791 224.259 150.071 218.358 148.766C218.327 148.468 218.292 148.183 218.252 147.913C218.173 147.366 218.08 146.882 217.975 146.489C217.866 146.094 217.762 145.798 217.592 145.572C217.396 145.327 217.111 145.15 216.736 144.974C216.459 144.847 216.129 144.725 215.748 144.607C215.859 144.311 215.982 143.953 216.086 143.539C216.18 143.583 216.283 143.608 216.39 143.608C216.392 143.608 216.394 143.608 216.396 143.608C216.612 143.608 216.814 143.515 216.979 143.371C217.228 143.154 217.418 142.823 217.559 142.368C217.697 141.913 217.781 141.33 217.781 140.598C217.781 140.438 217.778 140.272 217.769 140.098C217.674 138.137 217.556 136.705 217.556 134.649C217.556 133.207 217.614 131.455 217.78 128.998C217.79 128.848 217.795 128.696 217.795 128.54C217.793 126.987 217.285 125.2 216.169 123.367C216.381 123.371 216.581 123.373 216.772 123.373C218.222 123.373 219.078 123.269 219.09 123.267C219.225 123.25 219.338 123.158 219.381 123.029L221.107 117.85C221.343 117.954 221.596 118.019 221.882 118.019C222.628 118.019 223.597 117.576 225.071 116.244C225.071 116.244 222.157 115.86 220.141 112.828C220.585 112.798 221.028 112.708 221.455 112.523C222.23 112.188 222.806 111.585 223.182 110.874C223.559 110.161 223.743 109.336 223.743 108.516C223.743 108.082 223.691 107.65 223.587 107.234C223.494 106.868 223.372 106.517 223.227 106.178C224.938 108.886 226.653 111.611 228.455 114.288C230.677 117.59 233.033 120.821 235.683 123.856C236.077 124.357 236.531 124.858 237.027 125.351C239.981 128.535 243.302 131.469 247.19 134.001L247.199 134.007C247.595 134.24 247.947 134.759 248.203 135.439C248.394 136.355 248.558 137.183 248.684 137.833C248.704 138.106 248.714 138.378 248.714 138.645C248.714 138.913 248.704 139.175 248.685 139.426C247.737 142.488 246.241 145.848 244.123 148.527C242.009 151.201 239.3 153.188 235.886 153.613ZM247.801 133.573C247.728 133.514 247.652 133.459 247.573 133.409C245.878 132.306 244.29 131.123 242.794 129.875C245.417 131.604 247.617 132.757 247.617 132.757C247.68 133.03 247.741 133.302 247.801 133.573ZM66.4363 132.951C66.4511 132.885 66.4666 132.818 66.4814 132.752C66.4814 132.752 66.5884 132.697 66.7834 132.59C66.7426 132.631 66.701 132.673 66.6609 132.714C66.5842 132.792 66.5095 132.871 66.4363 132.951ZM72.3402 129.172C73.2795 128.522 74.2434 127.811 75.1545 127.065C74.2413 127.969 73.3034 128.583 72.3402 129.172ZM254.483 118.339C253.115 117.451 251.677 116.529 250.269 115.602L250.228 115.578C247.108 113.538 244.115 111.501 242.2 109.77C238.322 106.27 232.25 97.582 227.979 93.0814L228 93.0906C228.368 93.254 234.323 95.9614 238.657 97.132C238.657 97.132 247.713 111.481 254.483 118.339ZM59.6169 118.333C66.3884 111.477 75.4446 97.1284 75.4446 97.1284C79.7791 95.9586 85.7344 93.2518 86.1027 93.0877L86.1231 93.0793C81.8527 97.5792 75.7798 106.266 71.9016 109.766C69.9857 111.497 66.9925 113.533 63.8726 115.573L63.8325 115.598C62.4229 116.524 60.9858 117.446 59.6169 118.333ZM221.539 103.519C221.2 103.1 220.848 102.697 220.502 102.3C220.483 102.28 220.429 102.203 220.367 102.095C220.18 101.779 219.895 101.195 219.558 100.464C220.225 101.475 220.884 102.494 221.539 103.519ZM64.8478 87.3637C65.0126 87.1475 65.1788 86.9299 65.3449 86.7122C65.5709 86.4474 65.8012 86.196 66.0357 85.9572C65.6794 86.372 65.2816 86.844 64.8478 87.3637ZM108.428 82.2461C106.821 81.9017 105.043 81.4651 103.151 80.8488C105.149 81.1051 107.104 81.4256 109.046 81.9179C108.839 82.0264 108.633 82.1356 108.428 82.2461ZM75.7974 81.1798C76.091 81.1051 76.386 81.0312 76.6803 80.9572C80.3241 80.2522 84.2255 79.7669 88.1115 79.6634C86.8744 79.8113 85.526 79.9698 84.0608 80.1311C80.6093 80.5086 77.9287 80.834 75.7974 81.1798Z" fill="#D9F1D9"/>
</svg>
